<svg xmlns="http://www.w3.org/2000/svg" viewBox="0 0 488 449.9"><defs><style>.cls-1{fill:#fff;}.cls-2{fill:#3f59a8;stroke:#5361ac;stroke-miterlimit:10;stroke-width:7px;}</style></defs><g id="Layer_2" data-name="Layer 2"><g id="Layer_1-2" data-name="Layer 1"><rect class="cls-1" x="28.48" y="122.97" width="430.98" height="326.56"/><path class="cls-2" d="M3.5,439.57V123.86a10.28,10.28,0,0,1,5.83-9.26L239.09,4.51a10.23,10.23,0,0,1,8.83,0l230.7,109.12a10.28,10.28,0,0,1,5.88,9.29V436.12a10.27,10.27,0,0,1-10.27,10.28H307a10.27,10.27,0,0,1-10.14-8.64c-3.46-21.59-9.15-83.42,19.6-115.36,35.67-39.64,113.58-80.26,117.9-178.31a.89.89,0,0,0-1.54-.63c-6.35,7.11-33.62,31-123.21,45.78-7.9,1.31-29.68,4-40.71,6.47-9.85,2.15-25.44,8.32-21,15.07,7.78,11.87,14.42,31.53,9.31,52,0,0-31.89-73.16-107.8-86a178,178,0,0,1-28.71-7.49c-19.5-6.76-49.6-18.07-66.4-28.71a.88.88,0,0,0-1.36.73c0,11.3,2.57,79.82,63.34,121,66.38,44.93,75.57,71.48,81.7,116.42,4.12,30.22.16,50.28-2.88,60.18a10.26,10.26,0,0,1-9.81,7.23H10A6.5,6.5,0,0,1,3.5,439.57Z"/></g></g></svg>